<?xml version="1.0" standalone="no"?>
<!DOCTYPE svg PUBLIC "-//W3C//DTD SVG 20010904//EN"
 "http://www.w3.org/TR/2001/REC-SVG-20010904/DTD/svg10.dtd">
<svg version="1.0" xmlns="http://www.w3.org/2000/svg"
 width="300.000000pt" height="292.000000pt" viewBox="0 0 300.000000 292.000000"
 preserveAspectRatio="xMidYMid meet">

<g transform="translate(0.000000,292.000000) scale(0.100000,-0.100000)"
fill="#000000" stroke="none">
<path d="M1270 2886 c-211 -38 -382 -106 -567 -228 -273 -178 -481 -459 -579
-783 -128 -418 -54 -871 201 -1236 79 -112 249 -280 360 -356 169 -114 352
-192 542 -230 125 -25 422 -25 551 0 509 99 939 478 1098 967 50 155 64 250
64 442 0 194 -11 271 -60 429 -154 495 -551 859 -1069 981 -112 26 -427 34
-541 14z m510 -225 c292 -72 560 -251 725 -486 138 -197 211 -414 222 -660 18
-408 -164 -787 -495 -1033 -253 -188 -596 -275 -897 -229 -132 21 -333 87
-431 143 -393 224 -624 619 -624 1068 0 254 65 477 201 686 56 85 235 263 329
327 145 98 317 168 470 193 41 6 82 13 90 15 8 2 85 2 170 0 112 -3 179 -9
240 -24z"/>
<path d="M1243 2499 c-24 -12 -43 -26 -43 -32 0 -20 215 -377 227 -377 21 0
15 18 -32 103 -25 44 -44 84 -43 89 2 5 42 -20 88 -56 80 -62 108 -75 123 -60
4 4 -30 34 -76 67 -109 79 -103 71 -82 111 18 33 18 36 1 80 -19 51 -66 96
-99 96 -12 0 -41 -9 -64 -21z m106 -46 c30 -37 37 -72 20 -102 -25 -44 -43
-37 -83 29 -50 84 -48 100 10 100 23 0 38 -8 53 -27z"/>
<path d="M1490 2425 c-10 -12 -10 -21 -2 -40 13 -29 43 -33 66 -9 19 18 19 20
6 45 -13 23 -52 25 -70 4z"/>
<path d="M1106 2422 c-4 -8 185 -343 214 -377 8 -10 17 -12 22 -7 11 11 -8 51
-105 217 -39 66 -77 132 -86 147 -16 27 -35 36 -45 20z"/>
<path d="M1740 2412 c0 -16 12 -24 53 -38 296 -97 543 -364 618 -669 27 -108
35 -297 16 -398 -13 -74 -12 -79 5 -88 25 -13 35 16 50 144 21 185 -15 376
-104 554 -79 159 -198 291 -355 393 -73 48 -198 105 -253 116 -26 6 -30 3 -30
-14z"/>
<path d="M946 2332 c-3 -6 26 -104 64 -218 39 -114 70 -209 70 -211 0 -2 7 -3
15 -3 17 0 19 27 5 64 -9 24 -6 29 32 56 l42 30 36 -35 c30 -29 39 -33 48 -23
8 11 -22 50 -136 178 -81 90 -152 165 -159 167 -6 2 -14 0 -17 -5z m165 -199
c22 -29 38 -57 34 -63 -3 -5 -19 -17 -35 -25 -22 -11 -30 -12 -37 -2 -13 16
-73 188 -73 207 0 15 37 -24 111 -117z"/>
<path d="M791 2240 c-12 -7 -7 -22 28 -81 23 -40 39 -79 37 -85 -3 -7 -24 -23
-47 -34 -47 -24 -43 -26 -84 50 -37 71 -52 87 -65 73 -12 -11 -8 -20 159 -307
45 -78 71 -104 71 -72 0 9 -22 56 -50 105 -27 49 -50 91 -50 95 0 7 76 56 88
56 5 0 33 -43 63 -95 36 -63 59 -94 69 -92 8 2 14 9 12 15 -2 12 -199 360
-211 374 -3 4 -13 3 -20 -2z"/>
<path d="M1679 2072 c-74 -39 -102 -82 -97 -149 5 -60 22 -94 167 -348 137
-238 214 -355 254 -382 65 -45 171 -21 235 51 27 31 32 44 32 89 0 60 -21 109
-107 254 -95 163 -125 193 -190 193 -37 0 -90 -33 -111 -70 -9 -16 -20 -30
-24 -30 -4 0 -39 57 -78 126 -73 128 -83 166 -49 187 32 20 66 -1 104 -63 l37
-60 49 26 c27 15 49 32 49 39 0 21 -75 119 -109 142 -46 31 -96 29 -162 -5z
m310 -441 c45 -63 159 -269 166 -299 5 -25 3 -38 -11 -53 -38 -42 -73 -12
-157 133 -109 189 -116 213 -76 241 26 19 55 11 78 -22z"/>
<path d="M616 1918 c-21 -29 -4 -58 34 -58 33 0 47 27 30 60 -14 26 -45 26
-64 -2z"/>
<path d="M1307 1856 c-91 -33 -145 -104 -133 -179 7 -45 47 -128 100 -211 38
-59 79 -86 131 -86 29 0 29 1 10 -36 -24 -46 -18 -87 25 -171 87 -167 159
-243 229 -243 74 1 171 65 191 126 17 50 0 108 -63 223 -67 123 -110 168 -166
177 -38 6 -42 9 -36 28 4 12 9 41 12 66 4 40 -2 55 -47 135 -59 103 -101 151
-147 171 -39 17 -57 17 -106 0z m70 -108 c28 -31 110 -174 124 -216 9 -27 8
-37 -5 -57 -37 -56 -77 -25 -162 125 -58 101 -63 123 -37 152 22 24 55 23 80
-4z m217 -380 c40 -35 156 -246 156 -283 0 -38 -16 -55 -50 -55 -35 0 -46 13
-124 149 -73 127 -82 169 -44 195 29 21 32 20 62 -6z"/>
<path d="M500 1694 c-6 -14 -15 -69 -21 -122 -37 -331 115 -690 375 -891 96
-75 249 -154 339 -176 19 -5 25 -2 30 14 4 17 -3 23 -47 37 -298 98 -543 360
-626 669 -30 112 -37 285 -17 394 9 46 14 88 11 92 -11 18 -35 8 -44 -17z"/>
<path d="M924 1630 c-73 -17 -148 -85 -159 -143 -10 -53 55 -194 172 -374 74
-112 163 -122 241 -27 l29 35 45 -78 c102 -176 112 -207 79 -237 -28 -25 -61
-5 -105 64 l-37 58 -37 -15 c-75 -30 -77 -50 -11 -133 68 -86 126 -100 220
-52 66 33 99 79 99 136 0 47 -35 126 -123 279 -263 454 -258 446 -321 476 -46
23 -46 23 -92 11z m40 -112 c28 -25 173 -268 182 -305 15 -59 -25 -99 -70 -69
-30 19 -185 284 -193 329 -3 24 0 38 12 50 22 23 39 21 69 -5z"/>
<path d="M2237 1163 c-29 -28 33 -93 88 -93 19 0 45 5 58 11 18 8 30 8 46 0
27 -15 28 -51 1 -51 -11 0 -20 -7 -20 -15 0 -16 35 -20 64 -9 24 9 19 47 -8
73 -32 30 -72 39 -122 28 -23 -6 -49 -7 -58 -4 -23 9 -20 38 4 44 11 3 20 9
20 14 0 10 -63 12 -73 2z"/>
<path d="M2168 1029 c-48 -27 12 -107 116 -155 75 -35 116 -31 116 13 0 61
-181 171 -232 142z m100 -43 c57 -29 97 -69 89 -90 -10 -24 -38 -19 -97 17
-59 36 -76 56 -67 81 8 21 19 20 75 -8z"/>
<path d="M2066 899 c-14 -11 -26 -26 -25 -32 1 -16 198 -191 206 -183 4 3 -10
23 -30 44 -60 62 -45 82 28 37 44 -27 55 -30 55 -15 0 5 -22 21 -48 34 -33 16
-52 35 -62 57 -13 29 -70 79 -90 79 -4 0 -19 -9 -34 -21z m82 -31 c17 -17 15
-48 -4 -55 -19 -7 -64 34 -57 53 6 17 45 18 61 2z"/>
<path d="M1980 814 c0 -11 165 -214 174 -214 16 0 -3 30 -80 125 -67 84 -94
109 -94 89z"/>
<path d="M1888 762 c-16 -10 -28 -21 -28 -25 0 -5 17 -39 39 -75 21 -37 50
-88 65 -114 15 -27 30 -48 34 -48 14 0 72 40 72 50 0 17 -27 22 -51 9 -20 -10
-25 -9 -41 11 -22 28 -23 49 -1 65 22 17 7 38 -23 31 -18 -5 -27 0 -41 20 -17
26 -16 27 10 46 15 11 24 25 20 33 -7 19 -20 18 -55 -3z"/>
<path d="M1790 701 c0 -5 7 -25 15 -46 12 -28 13 -40 4 -51 -22 -26 -47 -16
-59 24 -13 40 -26 59 -35 50 -8 -8 85 -258 96 -258 12 0 12 5 -8 67 -15 47
-15 56 -3 64 27 17 42 5 62 -48 11 -29 24 -53 29 -53 13 0 12 2 -20 93 -44
125 -62 167 -72 167 -5 0 -9 -4 -9 -9z"/>
<path d="M1640 642 c0 -11 5 -44 11 -72 17 -80 5 -81 -37 -3 -21 40 -45 73
-51 73 -7 0 -13 -3 -13 -7 -1 -28 56 -263 64 -263 4 0 6 13 3 29 -3 15 -9 52
-12 82 l-6 54 35 -55 c20 -30 38 -63 42 -72 3 -10 12 -18 21 -18 8 0 13 6 11
13 -3 6 -15 64 -28 127 -22 109 -40 160 -40 112z"/>
<path d="M1306 548 c-4 -51 -9 -112 -12 -135 -5 -35 -3 -43 9 -43 12 0 17 13
19 52 3 50 5 53 33 58 25 4 32 12 44 48 9 30 11 53 4 75 -8 28 -13 32 -49 35
l-41 3 -7 -93z m72 15 c-2 -31 -7 -39 -25 -41 -20 -3 -23 1 -23 31 0 39 6 47
32 47 16 0 19 -6 16 -37z"/>
<path d="M1480 500 c0 -87 4 -140 10 -140 6 0 10 53 10 140 0 87 -4 140 -10
140 -6 0 -10 -53 -10 -140z"/>
</g>
</svg>
